<?xml version="1.0" encoding="UTF-8"?>
<svg xmlns="http://www.w3.org/2000/svg" xmlns:xlink="http://www.w3.org/1999/xlink" width="504pt" height="288pt" viewBox="0 0 504 288" version="1.1">
<defs>
<clipPath id="clip1">
  <path d="M 59.039062 208 L 473.757812 208 L 473.757812 210 L 59.039062 210 Z M 59.039062 208 "/>
</clipPath>
<clipPath id="clip2">
  <path d="M 362 59.039062 L 363 59.039062 L 363 214.558594 L 362 214.558594 Z M 362 59.039062 "/>
</clipPath>
<clipPath id="clip3">
  <path d="M 59.039062 208 L 473.757812 208 L 473.757812 210 L 59.039062 210 Z M 59.039062 208 "/>
</clipPath>
<clipPath id="clip4">
  <path d="M 362 59.039062 L 363 59.039062 L 363 214.558594 L 362 214.558594 Z M 362 59.039062 "/>
</clipPath>
</defs>
<g id="surface221">
<rect x="0" y="0" width="504" height="288" style="fill:rgb(100%,100%,100%);fill-opacity:1;stroke:none;"/>
<path style="fill:none;stroke-width:0.75;stroke-linecap:round;stroke-linejoin:round;stroke:rgb(0%,0%,0%);stroke-opacity:1;stroke-miterlimit:10;" d="M 74.398438 208.800781 L 74.878906 208.796875 L 75.359375 208.796875 L 75.839844 208.792969 L 76.320312 208.792969 L 77.28125 208.785156 L 77.761719 208.785156 L 78.238281 208.78125 L 78.71875 208.78125 L 80.160156 208.769531 L 80.640625 208.769531 L 81.601562 208.761719 L 82.078125 208.757812 L 85.921875 208.726562 L 86.398438 208.722656 L 86.878906 208.714844 L 87.839844 208.707031 L 88.320312 208.699219 L 88.800781 208.695312 L 89.28125 208.6875 L 89.761719 208.683594 L 90.238281 208.675781 L 90.71875 208.671875 L 92.160156 208.648438 L 92.640625 208.644531 L 93.601562 208.628906 L 94.078125 208.621094 L 94.558594 208.609375 L 96 208.585938 L 96.480469 208.574219 L 96.960938 208.566406 L 97.921875 208.542969 L 98.398438 208.535156 L 99.839844 208.5 L 100.320312 208.484375 L 101.28125 208.460938 L 101.761719 208.445312 L 102.238281 208.433594 L 105.121094 208.339844 L 105.601562 208.320312 L 106.078125 208.304688 L 108.480469 208.207031 L 109.441406 208.160156 L 109.921875 208.140625 L 110.398438 208.117188 L 110.878906 208.089844 L 111.839844 208.042969 L 113.28125 207.960938 L 113.761719 207.929688 L 114.238281 207.902344 L 115.679688 207.808594 L 117.601562 207.667969 L 118.078125 207.632812 L 119.519531 207.515625 L 120.960938 207.386719 L 121.441406 207.339844 L 121.921875 207.296875 L 122.398438 207.25 L 124.320312 207.046875 L 125.28125 206.9375 L 125.761719 206.878906 L 126.238281 206.820312 L 126.71875 206.761719 L 127.679688 206.636719 L 129.121094 206.4375 L 129.601562 206.367188 L 130.078125 206.296875 L 130.558594 206.222656 L 131.039062 206.144531 L 131.519531 206.070312 L 132 205.992188 L 132.960938 205.828125 L 133.441406 205.742188 L 133.921875 205.652344 L 134.398438 205.566406 L 135.839844 205.285156 L 136.320312 205.1875 L 137.28125 204.984375 L 137.761719 204.878906 L 138.238281 204.769531 L 138.71875 204.660156 L 139.679688 204.433594 L 141.121094 204.070312 L 141.601562 203.945312 L 142.078125 203.816406 L 142.558594 203.683594 L 143.519531 203.410156 L 144 203.269531 L 144.960938 202.980469 L 145.921875 202.675781 L 146.398438 202.519531 L 146.878906 202.359375 L 147.839844 202.03125 L 148.320312 201.859375 L 149.28125 201.507812 L 149.761719 201.328125 L 150.238281 201.144531 L 151.199219 200.761719 L 151.679688 200.566406 L 152.160156 200.367188 L 152.640625 200.164062 L 153.601562 199.742188 L 154.078125 199.527344 L 155.039062 199.082031 L 156 198.621094 L 156.480469 198.382812 L 156.960938 198.140625 L 157.441406 197.894531 L 157.921875 197.644531 L 158.398438 197.386719 L 158.878906 197.128906 L 159.359375 196.863281 L 159.839844 196.59375 L 160.320312 196.320312 L 160.800781 196.039062 L 161.28125 195.753906 L 161.761719 195.464844 L 162.238281 195.171875 L 162.71875 194.871094 L 163.199219 194.566406 L 163.679688 194.257812 L 164.640625 193.625 L 165.601562 192.96875 L 166.078125 192.628906 L 166.558594 192.289062 L 167.039062 191.941406 L 167.519531 191.589844 L 168 191.230469 L 168.480469 190.867188 L 168.960938 190.496094 L 169.441406 190.121094 L 169.921875 189.742188 L 170.398438 189.351562 L 170.878906 188.960938 L 171.359375 188.5625 L 171.839844 188.15625 L 172.320312 187.746094 L 172.800781 187.332031 L 173.761719 186.480469 L 174.238281 186.042969 L 174.71875 185.601562 L 175.199219 185.15625 L 175.679688 184.703125 L 176.160156 184.242188 L 176.640625 183.777344 L 177.121094 183.304688 L 177.601562 182.828125 L 178.078125 182.34375 L 178.558594 181.851562 L 179.039062 181.355469 L 179.519531 180.851562 L 180 180.339844 L 180.480469 179.824219 L 180.960938 179.300781 L 181.441406 178.773438 L 181.921875 178.238281 L 182.398438 177.695312 L 182.878906 177.148438 L 183.359375 176.59375 L 183.839844 176.03125 L 184.320312 175.464844 L 184.800781 174.890625 L 185.28125 174.308594 L 185.761719 173.722656 L 186.238281 173.128906 L 186.71875 172.527344 L 187.199219 171.921875 L 187.679688 171.308594 L 188.160156 170.691406 L 188.640625 170.066406 L 189.121094 169.433594 L 189.601562 168.796875 L 190.078125 168.152344 L 190.558594 167.503906 L 191.039062 166.847656 L 191.519531 166.183594 L 192 165.515625 L 192.480469 164.839844 L 192.960938 164.160156 L 193.441406 163.472656 L 193.921875 162.78125 L 194.398438 162.082031 L 194.878906 161.378906 L 195.359375 160.667969 L 195.839844 159.953125 L 196.320312 159.230469 L 196.800781 158.503906 L 197.28125 157.769531 L 197.761719 157.03125 L 198.238281 156.289062 L 198.71875 155.539062 L 199.199219 154.785156 L 199.679688 154.027344 L 200.160156 153.261719 L 200.640625 152.492188 L 201.121094 151.71875 L 201.601562 150.9375 L 202.078125 150.152344 L 202.558594 149.363281 L 203.039062 148.570312 L 203.519531 147.773438 L 204 146.972656 L 204.960938 145.355469 L 205.441406 144.539062 L 205.921875 143.71875 L 206.398438 142.898438 L 207.359375 141.242188 L 207.839844 140.410156 L 208.320312 139.574219 L 208.800781 138.734375 L 209.28125 137.890625 L 209.761719 137.042969 L 210.238281 136.195312 L 210.71875 135.34375 L 211.679688 133.632812 L 212.640625 131.914062 L 213.601562 130.1875 L 214.078125 129.320312 L 215.039062 127.585938 L 216.480469 124.972656 L 216.960938 124.097656 L 217.441406 123.226562 L 217.921875 122.351562 L 218.398438 121.480469 L 219.359375 119.730469 L 219.839844 118.859375 L 220.320312 117.984375 L 221.761719 115.371094 L 222.238281 114.503906 L 223.199219 112.769531 L 223.679688 111.90625 L 225.121094 109.328125 L 225.601562 108.476562 L 226.078125 107.621094 L 226.558594 106.773438 L 227.519531 105.085938 L 228 104.246094 L 228.960938 102.582031 L 229.441406 101.753906 L 229.921875 100.933594 L 230.398438 100.113281 L 230.878906 99.300781 L 231.359375 98.492188 L 231.839844 97.691406 L 232.320312 96.894531 L 232.800781 96.101562 L 233.28125 95.316406 L 233.761719 94.535156 L 234.238281 93.761719 L 234.71875 92.992188 L 235.199219 92.230469 L 235.679688 91.476562 L 236.160156 90.730469 L 236.640625 89.988281 L 237.121094 89.253906 L 237.601562 88.527344 L 238.078125 87.8125 L 238.558594 87.101562 L 239.039062 86.398438 L 239.519531 85.703125 L 240 85.019531 L 240.480469 84.34375 L 240.960938 83.675781 L 241.441406 83.015625 L 241.921875 82.367188 L 242.398438 81.726562 L 242.878906 81.09375 L 243.359375 80.472656 L 243.839844 79.863281 L 244.320312 79.261719 L 244.800781 78.671875 L 245.28125 78.089844 L 245.761719 77.519531 L 246.238281 76.960938 L 246.71875 76.414062 L 247.199219 75.875 L 247.679688 75.347656 L 248.160156 74.832031 L 248.640625 74.332031 L 249.121094 73.839844 L 249.601562 73.359375 L 250.078125 72.890625 L 250.558594 72.433594 L 251.039062 71.988281 L 251.519531 71.558594 L 252 71.136719 L 252.480469 70.730469 L 252.960938 70.335938 L 253.441406 69.957031 L 253.921875 69.585938 L 254.398438 69.230469 L 254.878906 68.890625 L 255.359375 68.558594 L 255.839844 68.242188 L 256.320312 67.941406 L 256.800781 67.652344 L 257.28125 67.375 L 257.761719 67.113281 L 258.238281 66.867188 L 258.71875 66.632812 L 259.199219 66.410156 L 259.679688 66.203125 L 260.160156 66.011719 L 260.640625 65.832031 L 261.121094 65.667969 L 261.601562 65.519531 L 262.078125 65.382812 L 262.558594 65.261719 L 263.039062 65.152344 L 263.519531 65.058594 L 264 64.980469 L 264.480469 64.914062 L 264.960938 64.863281 L 265.441406 64.828125 L 265.921875 64.808594 L 266.398438 64.800781 L 266.878906 64.808594 L 267.359375 64.828125 L 267.839844 64.863281 L 268.320312 64.914062 L 268.800781 64.980469 L 269.28125 65.058594 L 269.761719 65.152344 L 270.238281 65.261719 L 270.71875 65.382812 L 271.199219 65.519531 L 271.679688 65.667969 L 272.160156 65.832031 L 272.640625 66.011719 L 273.121094 66.203125 L 273.601562 66.410156 L 274.078125 66.632812 L 274.558594 66.867188 L 275.039062 67.113281 L 275.519531 67.375 L 276 67.652344 L 276.480469 67.941406 L 276.960938 68.242188 L 277.441406 68.558594 L 277.921875 68.890625 L 278.398438 69.230469 L 278.878906 69.585938 L 279.359375 69.957031 L 279.839844 70.335938 L 280.320312 70.730469 L 280.800781 71.136719 L 281.28125 71.558594 L 281.761719 71.988281 L 282.238281 72.433594 L 282.71875 72.890625 L 283.199219 73.359375 L 283.679688 73.839844 L 284.160156 74.332031 L 284.640625 74.832031 L 285.121094 75.347656 L 285.601562 75.875 L 286.078125 76.414062 L 286.558594 76.960938 L 287.039062 77.519531 L 287.519531 78.089844 L 288 78.671875 L 288.480469 79.261719 L 288.960938 79.863281 L 289.441406 80.472656 L 289.921875 81.09375 L 290.398438 81.726562 L 290.878906 82.367188 L 291.359375 83.015625 L 291.839844 83.675781 L 292.320312 84.34375 L 292.800781 85.019531 L 293.28125 85.703125 L 293.761719 86.398438 L 294.238281 87.101562 L 294.71875 87.8125 L 295.199219 88.527344 L 295.679688 89.253906 L 296.160156 89.988281 L 296.640625 90.730469 L 297.121094 91.476562 L 297.601562 92.230469 L 298.078125 92.992188 L 298.558594 93.761719 L 299.039062 94.535156 L 299.519531 95.316406 L 300 96.101562 L 300.480469 96.894531 L 300.960938 97.691406 L 301.441406 98.492188 L 301.921875 99.300781 L 302.398438 100.113281 L 303.359375 101.753906 L 303.839844 102.582031 L 304.800781 104.246094 L 305.28125 105.085938 L 305.761719 105.929688 L 306.238281 106.773438 L 306.71875 107.621094 L 307.199219 108.476562 L 307.679688 109.328125 L 309.121094 111.90625 L 309.601562 112.769531 L 310.078125 113.636719 L 311.039062 115.371094 L 312.480469 117.984375 L 312.960938 118.859375 L 313.441406 119.730469 L 313.921875 120.605469 L 314.398438 121.480469 L 314.878906 122.351562 L 315.359375 123.226562 L 315.839844 124.097656 L 316.320312 124.972656 L 317.761719 127.585938 L 318.238281 128.453125 L 319.199219 130.1875 L 320.160156 131.914062 L 321.121094 133.632812 L 321.601562 134.488281 L 322.078125 135.34375 L 322.558594 136.195312 L 323.519531 137.890625 L 324 138.734375 L 324.480469 139.574219 L 324.960938 140.410156 L 325.441406 141.242188 L 325.921875 142.070312 L 326.398438 142.898438 L 327.359375 144.539062 L 327.839844 145.355469 L 328.800781 146.972656 L 329.28125 147.773438 L 329.761719 148.570312 L 330.238281 149.363281 L 330.71875 150.152344 L 331.199219 150.9375 L 331.679688 151.71875 L 332.160156 152.492188 L 332.640625 153.261719 L 333.121094 154.027344 L 333.601562 154.785156 L 334.078125 155.539062 L 334.558594 156.289062 L 335.039062 157.03125 L 335.519531 157.769531 L 336 158.503906 L 336.480469 159.230469 L 336.960938 159.953125 L 337.441406 160.667969 L 337.921875 161.378906 L 338.398438 162.082031 L 338.878906 162.78125 L 339.359375 163.472656 L 339.839844 164.160156 L 340.320312 164.839844 L 340.800781 165.515625 L 341.28125 166.183594 L 341.761719 166.847656 L 342.238281 167.503906 L 342.71875 168.152344 L 343.199219 168.796875 L 343.679688 169.433594 L 344.160156 170.066406 L 344.640625 170.691406 L 345.121094 171.308594 L 345.601562 171.921875 L 346.078125 172.527344 L 346.558594 173.128906 L 347.039062 173.722656 L 347.519531 174.308594 L 348 174.890625 L 348.480469 175.464844 L 348.960938 176.03125 L 349.441406 176.59375 L 349.921875 177.148438 L 350.398438 177.695312 L 350.878906 178.238281 L 351.359375 178.773438 L 351.839844 179.300781 L 352.320312 179.824219 L 352.800781 180.339844 L 353.28125 180.851562 L 353.761719 181.355469 L 354.238281 181.851562 L 354.71875 182.34375 L 355.199219 182.828125 L 355.679688 183.304688 L 356.160156 183.777344 L 356.640625 184.242188 L 357.121094 184.703125 L 357.601562 185.15625 L 358.078125 185.601562 L 358.558594 186.042969 L 359.039062 186.480469 L 360 187.332031 L 360.480469 187.746094 L 360.960938 188.15625 L 361.441406 188.5625 L 361.921875 188.960938 L 362.398438 189.351562 L 362.878906 189.742188 L 363.359375 190.121094 L 363.839844 190.496094 L 364.320312 190.867188 L 364.800781 191.230469 L 365.28125 191.589844 L 365.761719 191.941406 L 366.238281 192.289062 L 367.199219 192.96875 L 368.160156 193.625 L 369.121094 194.257812 L 369.601562 194.566406 L 370.078125 194.871094 L 370.558594 195.171875 L 371.039062 195.464844 L 371.519531 195.753906 L 372 196.039062 L 372.480469 196.320312 L 372.960938 196.59375 L 373.441406 196.863281 L 373.921875 197.128906 L 374.398438 197.386719 L 374.878906 197.644531 L 375.359375 197.894531 L 375.839844 198.140625 L 376.320312 198.382812 L 376.800781 198.621094 L 377.761719 199.082031 L 378.238281 199.304688 L 378.71875 199.527344 L 379.199219 199.742188 L 380.160156 200.164062 L 380.640625 200.367188 L 381.121094 200.566406 L 381.601562 200.761719 L 382.078125 200.953125 L 382.558594 201.144531 L 383.039062 201.328125 L 383.519531 201.507812 L 384.480469 201.859375 L 384.960938 202.03125 L 385.921875 202.359375 L 386.398438 202.519531 L 386.878906 202.675781 L 387.839844 202.980469 L 388.800781 203.269531 L 389.28125 203.410156 L 389.761719 203.546875 L 390.238281 203.683594 L 390.71875 203.816406 L 391.199219 203.945312 L 391.679688 204.070312 L 393.121094 204.433594 L 393.601562 204.546875 L 394.078125 204.660156 L 395.039062 204.878906 L 395.519531 204.984375 L 396.480469 205.1875 L 396.960938 205.285156 L 397.921875 205.472656 L 398.398438 205.566406 L 398.878906 205.652344 L 399.359375 205.742188 L 399.839844 205.828125 L 400.800781 205.992188 L 401.28125 206.070312 L 401.761719 206.144531 L 402.238281 206.222656 L 402.71875 206.296875 L 403.679688 206.4375 L 405.121094 206.636719 L 405.601562 206.699219 L 406.078125 206.761719 L 407.519531 206.9375 L 408.480469 207.046875 L 409.921875 207.199219 L 410.398438 207.25 L 410.878906 207.296875 L 411.359375 207.339844 L 411.839844 207.386719 L 413.28125 207.515625 L 413.761719 207.554688 L 414.238281 207.59375 L 414.71875 207.632812 L 417.121094 207.808594 L 417.601562 207.839844 L 418.078125 207.871094 L 418.558594 207.902344 L 419.039062 207.929688 L 419.519531 207.960938 L 420.960938 208.042969 L 421.921875 208.089844 L 422.398438 208.117188 L 422.878906 208.140625 L 423.359375 208.160156 L 424.320312 208.207031 L 425.761719 208.265625 L 426.238281 208.285156 L 426.71875 208.304688 L 427.199219 208.320312 L 427.679688 208.339844 L 429.601562 208.402344 L 430.078125 208.417969 L 430.558594 208.433594 L 431.039062 208.445312 L 431.519531 208.460938 L 432.480469 208.484375 L 432.960938 208.5 L 433.921875 208.523438 L 434.398438 208.535156 L 434.878906 208.542969 L 435.839844 208.566406 L 436.320312 208.574219 L 436.800781 208.585938 L 437.761719 208.601562 L 438.238281 208.609375 L 438.71875 208.621094 L 440.160156 208.644531 L 440.640625 208.648438 L 441.601562 208.664062 L 442.078125 208.671875 L 442.558594 208.675781 L 443.039062 208.683594 L 443.519531 208.6875 L 444 208.695312 L 444.480469 208.699219 L 444.960938 208.707031 L 445.921875 208.714844 L 446.398438 208.722656 L 449.761719 208.75 L 450.238281 208.753906 L 452.160156 208.769531 L 452.640625 208.769531 L 453.601562 208.777344 L 454.078125 208.78125 L 454.558594 208.78125 L 455.039062 208.785156 L 455.519531 208.785156 L 456.480469 208.792969 L 456.960938 208.792969 L 457.441406 208.796875 L 457.921875 208.796875 L 458.398438 208.800781 "/>
<path style=" stroke:none;fill-rule:nonzero;fill:rgb(0%,0%,100%);fill-opacity:0.2;" d="M 74.398438 208.847656 L 74.398438 208.800781 L 74.878906 208.796875 L 75.359375 208.796875 L 75.839844 208.792969 L 76.320312 208.792969 L 77.28125 208.785156 L 77.761719 208.785156 L 78.238281 208.78125 L 78.71875 208.78125 L 80.160156 208.769531 L 80.640625 208.769531 L 81.601562 208.761719 L 82.078125 208.757812 L 85.921875 208.726562 L 86.398438 208.722656 L 86.878906 208.714844 L 87.839844 208.707031 L 88.320312 208.699219 L 88.800781 208.695312 L 89.28125 208.6875 L 89.761719 208.683594 L 90.238281 208.675781 L 90.71875 208.671875 L 92.160156 208.648438 L 92.640625 208.644531 L 93.601562 208.628906 L 94.078125 208.621094 L 94.558594 208.609375 L 96 208.585938 L 96.480469 208.574219 L 96.960938 208.566406 L 97.921875 208.542969 L 98.398438 208.535156 L 99.839844 208.5 L 100.320312 208.484375 L 101.28125 208.460938 L 101.761719 208.445312 L 102.238281 208.433594 L 105.121094 208.339844 L 105.601562 208.320312 L 106.078125 208.304688 L 108.480469 208.207031 L 109.441406 208.160156 L 109.921875 208.140625 L 110.398438 208.117188 L 110.878906 208.089844 L 111.839844 208.042969 L 113.28125 207.960938 L 113.761719 207.929688 L 114.238281 207.902344 L 115.679688 207.808594 L 117.601562 207.667969 L 118.078125 207.632812 L 119.519531 207.515625 L 120.960938 207.386719 L 121.441406 207.339844 L 121.921875 207.296875 L 122.398438 207.25 L 124.320312 207.046875 L 125.28125 206.9375 L 125.761719 206.878906 L 126.238281 206.820312 L 126.71875 206.761719 L 127.679688 206.636719 L 129.121094 206.4375 L 129.601562 206.367188 L 130.078125 206.296875 L 130.558594 206.222656 L 131.039062 206.144531 L 131.519531 206.070312 L 132 205.992188 L 132.960938 205.828125 L 133.441406 205.742188 L 133.921875 205.652344 L 134.398438 205.566406 L 135.839844 205.285156 L 136.320312 205.1875 L 137.28125 204.984375 L 137.761719 204.878906 L 138.238281 204.769531 L 138.71875 204.660156 L 139.679688 204.433594 L 141.121094 204.070312 L 141.601562 203.945312 L 142.078125 203.816406 L 142.558594 203.683594 L 143.519531 203.410156 L 144 203.269531 L 144.960938 202.980469 L 145.921875 202.675781 L 146.398438 202.519531 L 146.878906 202.359375 L 147.839844 202.03125 L 148.320312 201.859375 L 149.28125 201.507812 L 149.761719 201.328125 L 150.238281 201.144531 L 151.199219 200.761719 L 151.679688 200.566406 L 152.160156 200.367188 L 152.640625 200.164062 L 153.601562 199.742188 L 154.078125 199.527344 L 155.039062 199.082031 L 156 198.621094 L 156.480469 198.382812 L 156.960938 198.140625 L 157.441406 197.894531 L 157.921875 197.644531 L 158.398438 197.386719 L 158.878906 197.128906 L 159.359375 196.863281 L 159.839844 196.59375 L 160.320312 196.320312 L 160.800781 196.039062 L 161.28125 195.753906 L 161.761719 195.464844 L 162.238281 195.171875 L 162.71875 194.871094 L 163.199219 194.566406 L 163.679688 194.257812 L 164.640625 193.625 L 165.601562 192.96875 L 166.078125 192.628906 L 166.558594 192.289062 L 167.039062 191.941406 L 167.519531 191.589844 L 168 191.230469 L 168.480469 190.867188 L 168.960938 190.496094 L 169.441406 190.121094 L 169.921875 189.742188 L 170.398438 189.351562 L 170.878906 188.960938 L 171.359375 188.5625 L 171.839844 188.15625 L 172.320312 187.746094 L 172.800781 187.332031 L 173.761719 186.480469 L 174.238281 186.042969 L 174.71875 185.601562 L 175.199219 185.15625 L 175.679688 184.703125 L 176.160156 184.242188 L 176.640625 183.777344 L 177.121094 183.304688 L 177.601562 182.828125 L 178.078125 182.34375 L 178.558594 181.851562 L 179.039062 181.355469 L 179.519531 180.851562 L 180 180.339844 L 180.480469 179.824219 L 180.960938 179.300781 L 181.441406 178.773438 L 181.921875 178.238281 L 182.398438 177.695312 L 182.878906 177.148438 L 183.359375 176.59375 L 183.839844 176.03125 L 184.320312 175.464844 L 184.800781 174.890625 L 185.28125 174.308594 L 185.761719 173.722656 L 186.238281 173.128906 L 186.71875 172.527344 L 187.199219 171.921875 L 187.679688 171.308594 L 188.160156 170.691406 L 188.640625 170.066406 L 189.121094 169.433594 L 189.601562 168.796875 L 190.078125 168.152344 L 190.558594 167.503906 L 191.039062 166.847656 L 191.519531 166.183594 L 192 165.515625 L 192.480469 164.839844 L 192.960938 164.160156 L 193.441406 163.472656 L 193.921875 162.78125 L 194.398438 162.082031 L 194.878906 161.378906 L 195.359375 160.667969 L 195.839844 159.953125 L 196.320312 159.230469 L 196.800781 158.503906 L 197.28125 157.769531 L 197.761719 157.03125 L 198.238281 156.289062 L 198.71875 155.539062 L 199.199219 154.785156 L 199.679688 154.027344 L 200.160156 153.261719 L 200.640625 152.492188 L 201.121094 151.71875 L 201.601562 150.9375 L 202.078125 150.152344 L 202.558594 149.363281 L 203.039062 148.570312 L 203.519531 147.773438 L 204 146.972656 L 204.960938 145.355469 L 205.441406 144.539062 L 205.921875 143.71875 L 206.398438 142.898438 L 207.359375 141.242188 L 207.839844 140.410156 L 208.320312 139.574219 L 208.800781 138.734375 L 209.28125 137.890625 L 209.761719 137.042969 L 210.238281 136.195312 L 210.71875 135.34375 L 211.679688 133.632812 L 212.640625 131.914062 L 213.601562 130.1875 L 214.078125 129.320312 L 215.039062 127.585938 L 216.480469 124.972656 L 216.960938 124.097656 L 217.441406 123.226562 L 217.921875 122.351562 L 218.398438 121.480469 L 219.359375 119.730469 L 219.839844 118.859375 L 220.320312 117.984375 L 221.761719 115.371094 L 222.238281 114.503906 L 223.199219 112.769531 L 223.679688 111.90625 L 225.121094 109.328125 L 225.601562 108.476562 L 226.078125 107.621094 L 226.558594 106.773438 L 227.519531 105.085938 L 228 104.246094 L 228.960938 102.582031 L 229.441406 101.753906 L 229.921875 100.933594 L 230.398438 100.113281 L 230.878906 99.300781 L 231.359375 98.492188 L 231.839844 97.691406 L 232.320312 96.894531 L 232.800781 96.101562 L 233.28125 95.316406 L 233.761719 94.535156 L 234.238281 93.761719 L 234.71875 92.992188 L 235.199219 92.230469 L 235.679688 91.476562 L 236.160156 90.730469 L 236.640625 89.988281 L 237.121094 89.253906 L 237.601562 88.527344 L 238.078125 87.8125 L 238.558594 87.101562 L 239.039062 86.398438 L 239.519531 85.703125 L 240 85.019531 L 240.480469 84.34375 L 240.960938 83.675781 L 241.441406 83.015625 L 241.921875 82.367188 L 242.398438 81.726562 L 242.878906 81.09375 L 243.359375 80.472656 L 243.839844 79.863281 L 244.320312 79.261719 L 244.800781 78.671875 L 245.28125 78.089844 L 245.761719 77.519531 L 246.238281 76.960938 L 246.71875 76.414062 L 247.199219 75.875 L 247.679688 75.347656 L 248.160156 74.832031 L 248.640625 74.332031 L 249.121094 73.839844 L 249.601562 73.359375 L 250.078125 72.890625 L 250.558594 72.433594 L 251.039062 71.988281 L 251.519531 71.558594 L 252 71.136719 L 252.480469 70.730469 L 252.960938 70.335938 L 253.441406 69.957031 L 253.921875 69.585938 L 254.398438 69.230469 L 254.878906 68.890625 L 255.359375 68.558594 L 255.839844 68.242188 L 256.320312 67.941406 L 256.800781 67.652344 L 257.28125 67.375 L 257.761719 67.113281 L 258.238281 66.867188 L 258.71875 66.632812 L 259.199219 66.410156 L 259.679688 66.203125 L 260.160156 66.011719 L 260.640625 65.832031 L 261.121094 65.667969 L 261.601562 65.519531 L 262.078125 65.382812 L 262.558594 65.261719 L 263.039062 65.152344 L 263.519531 65.058594 L 264 64.980469 L 264.480469 64.914062 L 264.960938 64.863281 L 265.441406 64.828125 L 265.921875 64.808594 L 266.398438 64.800781 L 266.878906 64.808594 L 267.359375 64.828125 L 267.839844 64.863281 L 268.320312 64.914062 L 268.800781 64.980469 L 269.28125 65.058594 L 269.761719 65.152344 L 270.238281 65.261719 L 270.71875 65.382812 L 271.199219 65.519531 L 271.679688 65.667969 L 272.160156 65.832031 L 272.640625 66.011719 L 273.121094 66.203125 L 273.601562 66.410156 L 274.078125 66.632812 L 274.558594 66.867188 L 275.039062 67.113281 L 275.519531 67.375 L 276 67.652344 L 276.480469 67.941406 L 276.960938 68.242188 L 277.441406 68.558594 L 277.921875 68.890625 L 278.398438 69.230469 L 278.878906 69.585938 L 279.359375 69.957031 L 279.839844 70.335938 L 280.320312 70.730469 L 280.800781 71.136719 L 281.28125 71.558594 L 281.761719 71.988281 L 282.238281 72.433594 L 282.71875 72.890625 L 283.199219 73.359375 L 283.679688 73.839844 L 284.160156 74.332031 L 284.640625 74.832031 L 285.121094 75.347656 L 285.601562 75.875 L 286.078125 76.414062 L 286.558594 76.960938 L 287.039062 77.519531 L 287.519531 78.089844 L 288 78.671875 L 288.480469 79.261719 L 288.960938 79.863281 L 289.441406 80.472656 L 289.921875 81.09375 L 290.398438 81.726562 L 290.878906 82.367188 L 291.359375 83.015625 L 291.839844 83.675781 L 292.320312 84.34375 L 292.800781 85.019531 L 293.28125 85.703125 L 293.761719 86.398438 L 294.238281 87.101562 L 294.71875 87.8125 L 295.199219 88.527344 L 295.679688 89.253906 L 296.160156 89.988281 L 296.640625 90.730469 L 297.121094 91.476562 L 297.601562 92.230469 L 298.078125 92.992188 L 298.558594 93.761719 L 299.039062 94.535156 L 299.519531 95.316406 L 300 96.101562 L 300.480469 96.894531 L 300.960938 97.691406 L 301.441406 98.492188 L 301.921875 99.300781 L 302.398438 100.113281 L 303.359375 101.753906 L 303.839844 102.582031 L 304.800781 104.246094 L 305.28125 105.085938 L 305.761719 105.929688 L 306.238281 106.773438 L 306.71875 107.621094 L 307.199219 108.476562 L 307.679688 109.328125 L 309.121094 111.90625 L 309.601562 112.769531 L 310.078125 113.636719 L 311.039062 115.371094 L 312.480469 117.984375 L 312.960938 118.859375 L 313.441406 119.730469 L 313.921875 120.605469 L 314.398438 121.480469 L 314.878906 122.351562 L 315.359375 123.226562 L 315.839844 124.097656 L 316.320312 124.972656 L 317.761719 127.585938 L 318.238281 128.453125 L 319.199219 130.1875 L 320.160156 131.914062 L 321.121094 133.632812 L 321.601562 134.488281 L 322.078125 135.34375 L 322.558594 136.195312 L 323.519531 137.890625 L 324 138.734375 L 324.480469 139.574219 L 324.960938 140.410156 L 325.441406 141.242188 L 325.921875 142.070312 L 326.398438 142.898438 L 327.359375 144.539062 L 327.839844 145.355469 L 328.800781 146.972656 L 329.28125 147.773438 L 329.761719 148.570312 L 330.238281 149.363281 L 330.71875 150.152344 L 331.199219 150.9375 L 331.679688 151.71875 L 332.160156 152.492188 L 332.640625 153.261719 L 333.121094 154.027344 L 333.601562 154.785156 L 334.078125 155.539062 L 334.558594 156.289062 L 335.039062 157.03125 L 335.519531 157.769531 L 336 158.503906 L 336.480469 159.230469 L 336.960938 159.953125 L 337.441406 160.667969 L 337.921875 161.378906 L 338.398438 162.082031 L 338.878906 162.78125 L 339.359375 163.472656 L 339.839844 164.160156 L 340.320312 164.839844 L 340.800781 165.515625 L 341.28125 166.183594 L 341.761719 166.847656 L 342.238281 167.503906 L 342.71875 168.152344 L 343.199219 168.796875 L 343.679688 169.433594 L 344.160156 170.066406 L 344.640625 170.691406 L 345.121094 171.308594 L 345.601562 171.921875 L 346.078125 172.527344 L 346.558594 173.128906 L 347.039062 173.722656 L 347.519531 174.308594 L 348 174.890625 L 348.480469 175.464844 L 348.960938 176.03125 L 349.441406 176.59375 L 349.921875 177.148438 L 350.398438 177.695312 L 350.878906 178.238281 L 351.359375 178.773438 L 351.839844 179.300781 L 352.320312 179.824219 L 352.800781 180.339844 L 353.28125 180.851562 L 353.761719 181.355469 L 354.238281 181.851562 L 354.71875 182.34375 L 355.199219 182.828125 L 355.679688 183.304688 L 356.160156 183.777344 L 356.640625 184.242188 L 357.121094 184.703125 L 357.601562 185.15625 L 358.078125 185.601562 L 358.558594 186.042969 L 359.039062 186.480469 L 360 187.332031 L 360.480469 187.746094 L 360.960938 188.15625 L 361.441406 188.5625 L 361.921875 188.960938 L 362.398438 189.351562 L 362.878906 189.742188 L 363.359375 190.121094 L 363.839844 190.496094 L 364.320312 190.867188 L 364.800781 191.230469 L 365.28125 191.589844 L 365.761719 191.941406 L 366.238281 192.289062 L 367.199219 192.96875 L 368.160156 193.625 L 369.121094 194.257812 L 369.601562 194.566406 L 370.078125 194.871094 L 370.558594 195.171875 L 371.039062 195.464844 L 371.519531 195.753906 L 372 196.039062 L 372.480469 196.320312 L 372.960938 196.59375 L 373.441406 196.863281 L 373.921875 197.128906 L 374.398438 197.386719 L 374.878906 197.644531 L 375.359375 197.894531 L 375.839844 198.140625 L 376.320312 198.382812 L 376.800781 198.621094 L 377.761719 199.082031 L 378.238281 199.304688 L 378.71875 199.527344 L 379.199219 199.742188 L 380.160156 200.164062 L 380.640625 200.367188 L 381.121094 200.566406 L 381.601562 200.761719 L 382.078125 200.953125 L 382.558594 201.144531 L 383.039062 201.328125 L 383.519531 201.507812 L 384.480469 201.859375 L 384.960938 202.03125 L 385.921875 202.359375 L 386.398438 202.519531 L 386.878906 202.675781 L 387.839844 202.980469 L 388.800781 203.269531 L 389.28125 203.410156 L 389.761719 203.546875 L 390.238281 203.683594 L 390.71875 203.816406 L 391.199219 203.945312 L 391.679688 204.070312 L 393.121094 204.433594 L 393.601562 204.546875 L 394.078125 204.660156 L 395.039062 204.878906 L 395.519531 204.984375 L 396.480469 205.1875 L 396.960938 205.285156 L 397.921875 205.472656 L 398.398438 205.566406 L 398.878906 205.652344 L 399.359375 205.742188 L 399.839844 205.828125 L 400.800781 205.992188 L 401.28125 206.070312 L 401.761719 206.144531 L 402.238281 206.222656 L 402.71875 206.296875 L 403.679688 206.4375 L 405.121094 206.636719 L 405.601562 206.699219 L 406.078125 206.761719 L 407.519531 206.9375 L 408.480469 207.046875 L 409.921875 207.199219 L 410.398438 207.25 L 410.878906 207.296875 L 411.359375 207.339844 L 411.839844 207.386719 L 413.28125 207.515625 L 413.761719 207.554688 L 414.238281 207.59375 L 414.71875 207.632812 L 417.121094 207.808594 L 417.601562 207.839844 L 418.078125 207.871094 L 418.558594 207.902344 L 419.039062 207.929688 L 419.519531 207.960938 L 420.960938 208.042969 L 421.921875 208.089844 L 422.398438 208.117188 L 422.878906 208.140625 L 423.359375 208.160156 L 424.320312 208.207031 L 425.761719 208.265625 L 426.238281 208.285156 L 426.71875 208.304688 L 427.199219 208.320312 L 427.679688 208.339844 L 429.601562 208.402344 L 430.078125 208.417969 L 430.558594 208.433594 L 431.039062 208.445312 L 431.519531 208.460938 L 432.480469 208.484375 L 432.960938 208.5 L 433.921875 208.523438 L 434.398438 208.535156 L 434.878906 208.542969 L 435.839844 208.566406 L 436.320312 208.574219 L 436.800781 208.585938 L 437.761719 208.601562 L 438.238281 208.609375 L 438.71875 208.621094 L 440.160156 208.644531 L 440.640625 208.648438 L 441.601562 208.664062 L 442.078125 208.671875 L 442.558594 208.675781 L 443.039062 208.683594 L 443.519531 208.6875 L 444 208.695312 L 444.480469 208.699219 L 444.960938 208.707031 L 445.921875 208.714844 L 446.398438 208.722656 L 449.761719 208.75 L 450.238281 208.753906 L 452.160156 208.769531 L 452.640625 208.769531 L 453.601562 208.777344 L 454.078125 208.78125 L 454.558594 208.78125 L 455.039062 208.785156 L 455.519531 208.785156 L 456.480469 208.792969 L 456.960938 208.792969 L 457.441406 208.796875 L 457.921875 208.796875 L 458.398438 208.800781 L 458.398438 208.847656 Z M 74.398438 208.847656 "/>
<g clip-path="url(#clip1)" clip-rule="nonzero">
<path style="fill:none;stroke-width:0.75;stroke-linecap:round;stroke-linejoin:round;stroke:rgb(0%,0%,0%);stroke-opacity:1;stroke-miterlimit:10;" d="M 59.039062 208.847656 L 473.761719 208.847656 "/>
</g>
<g clip-path="url(#clip2)" clip-rule="nonzero">
<path style="fill:none;stroke-width:0.75;stroke-linecap:round;stroke-linejoin:round;stroke:rgb(0%,0%,0%);stroke-opacity:1;stroke-miterlimit:10;" d="M 362.398438 214.558594 L 362.398438 59.039062 "/>
</g>
<path style=" stroke:none;fill-rule:nonzero;fill:rgb(0%,0%,100%);fill-opacity:0.698039;" d="M 362.398438 208.847656 L 362.398438 189.351562 L 362.878906 189.742188 L 363.359375 190.121094 L 363.839844 190.496094 L 364.320312 190.867188 L 364.800781 191.230469 L 365.28125 191.589844 L 365.761719 191.941406 L 366.238281 192.289062 L 367.199219 192.96875 L 368.160156 193.625 L 369.121094 194.257812 L 369.601562 194.566406 L 370.078125 194.871094 L 370.558594 195.171875 L 371.039062 195.464844 L 371.519531 195.753906 L 372 196.039062 L 372.480469 196.320312 L 372.960938 196.59375 L 373.441406 196.863281 L 373.921875 197.128906 L 374.398438 197.386719 L 374.878906 197.644531 L 375.359375 197.894531 L 375.839844 198.140625 L 376.320312 198.382812 L 376.800781 198.621094 L 377.761719 199.082031 L 378.238281 199.304688 L 378.71875 199.527344 L 379.199219 199.742188 L 380.160156 200.164062 L 380.640625 200.367188 L 381.121094 200.566406 L 381.601562 200.761719 L 382.078125 200.953125 L 382.558594 201.144531 L 383.039062 201.328125 L 383.519531 201.507812 L 384.480469 201.859375 L 384.960938 202.03125 L 385.921875 202.359375 L 386.398438 202.519531 L 386.878906 202.675781 L 387.839844 202.980469 L 388.800781 203.269531 L 389.28125 203.410156 L 389.761719 203.546875 L 390.238281 203.683594 L 390.71875 203.816406 L 391.199219 203.945312 L 391.679688 204.070312 L 393.121094 204.433594 L 393.601562 204.546875 L 394.078125 204.660156 L 395.039062 204.878906 L 395.519531 204.984375 L 396.480469 205.1875 L 396.960938 205.285156 L 397.921875 205.472656 L 398.398438 205.566406 L 398.878906 205.652344 L 399.359375 205.742188 L 399.839844 205.828125 L 400.800781 205.992188 L 401.28125 206.070312 L 401.761719 206.144531 L 402.238281 206.222656 L 402.71875 206.296875 L 403.679688 206.4375 L 405.121094 206.636719 L 405.601562 206.699219 L 406.078125 206.761719 L 407.519531 206.9375 L 408.480469 207.046875 L 409.921875 207.199219 L 410.398438 207.25 L 410.878906 207.296875 L 411.359375 207.339844 L 411.839844 207.386719 L 413.28125 207.515625 L 413.761719 207.554688 L 414.238281 207.59375 L 414.71875 207.632812 L 417.121094 207.808594 L 417.601562 207.839844 L 418.078125 207.871094 L 418.558594 207.902344 L 419.039062 207.929688 L 419.519531 207.960938 L 420.960938 208.042969 L 421.921875 208.089844 L 422.398438 208.117188 L 422.878906 208.140625 L 423.359375 208.160156 L 424.320312 208.207031 L 425.761719 208.265625 L 426.238281 208.285156 L 426.71875 208.304688 L 427.199219 208.320312 L 427.679688 208.339844 L 429.601562 208.402344 L 430.078125 208.417969 L 430.558594 208.433594 L 431.039062 208.445312 L 431.519531 208.460938 L 432.480469 208.484375 L 432.960938 208.5 L 433.921875 208.523438 L 434.398438 208.535156 L 434.878906 208.542969 L 435.839844 208.566406 L 436.320312 208.574219 L 436.800781 208.585938 L 437.761719 208.601562 L 438.238281 208.609375 L 438.71875 208.621094 L 440.160156 208.644531 L 440.640625 208.648438 L 441.601562 208.664062 L 442.078125 208.671875 L 442.558594 208.675781 L 443.039062 208.683594 L 443.519531 208.6875 L 444 208.695312 L 444.480469 208.699219 L 444.960938 208.707031 L 445.921875 208.714844 L 446.398438 208.722656 L 449.761719 208.75 L 450.238281 208.753906 L 452.160156 208.769531 L 452.640625 208.769531 L 453.601562 208.777344 L 454.078125 208.78125 L 454.558594 208.78125 L 455.039062 208.785156 L 455.519531 208.785156 L 456.480469 208.792969 L 456.960938 208.792969 L 457.441406 208.796875 L 457.921875 208.796875 L 458.398438 208.800781 L 458.398438 208.847656 Z M 362.398438 208.847656 "/>
<g clip-path="url(#clip3)" clip-rule="nonzero">
<path style="fill:none;stroke-width:0.75;stroke-linecap:round;stroke-linejoin:round;stroke:rgb(0%,0%,0%);stroke-opacity:1;stroke-miterlimit:10;" d="M 59.039062 208.847656 L 473.761719 208.847656 "/>
</g>
<g clip-path="url(#clip4)" clip-rule="nonzero">
<path style="fill:none;stroke-width:0.75;stroke-linecap:round;stroke-linejoin:round;stroke:rgb(0%,0%,0%);stroke-opacity:1;stroke-miterlimit:10;" d="M 362.398438 214.558594 L 362.398438 59.039062 "/>
</g>
</g>
</svg>
